<svg xmlns="http://www.w3.org/2000/svg" xmlns:svg="http://www.w3.org/2000/svg" id="svg6" width="64" height="64" version="1.1" viewBox="0 0 64 64"><defs id="defs3051"><style id="current-color-scheme" type="text/css">.ColorScheme-Text{color:#000}</style></defs><path style="fill:currentColor;fill-opacity:1;stroke:none;stroke-width:2.90909" id="path4" d="m 31.999999,8.7272725 c -12.893091,0 -23.2727265,10.3796355 -23.2727265,23.2727265 0,12.893091 10.3796355,23.272729 23.2727265,23.272729 C 44.89309,55.272728 55.272728,44.89309 55.272728,32 55.272727,19.106908 44.89309,8.7272725 31.999999,8.7272725 Z m 0,2.9090905 c 11.281455,0 20.363637,9.082182 20.363637,20.363636 0,11.281455 -9.082182,20.363637 -20.363637,20.363637 -11.281454,0 -20.363636,-9.082182 -20.363636,-20.363637 0,-11.281454 9.082182,-20.363636 20.363636,-20.363636 z m -2.909091,5.818182 v 5.818182 h 5.818182 v -5.818182 z m 0,8.727272 V 46.545454 H 34.90909 V 26.181817 Z" class="ColorScheme-Text"/></svg>